<svg id="圖層_1" data-name="圖層 1" xmlns="http://www.w3.org/2000/svg" viewBox="0 0 706.7 909.5"><defs><style>.cls-1{fill:#6f9c76;stroke:#fff;stroke-linecap:round;stroke-linejoin:round;stroke-width:0.5px;}</style></defs><path id="TWKIN" class="cls-1" d="M181.2,423.5v.1l-1.1-.4-.3-.4.2-.4.4-.8-1.3-.9-.2-.3-.1-.1-2.5-1.9-1.8-1.9-2.7,1-1.3,1.6.2.7-.1.6-.3.2-.3-.1-.4,2.4-5,5.9-11.4-4.1.2,1-.2,1-.3.1,1.1,1.1-.4,8.2-3.3,2.6,2.5,2.7-1.4-.6-1.9-.2-1.7-.7-.9-1.5.3-.6,1.6-1.9.5-1,.1-1.4v-1.8l-.6-3.1-1.2-3-.2-1.6,1.1-.6,5.5-2.7,7.2,4.7,5-.6.8-6.3,1.7-3.9,5.3-1.1,5.2,4.7,2,5.3Zm.2,10.5.3-2.1h.3l-.2,1.7-.4.4Zm.9-5-1-3,.1-.7.3-.4.8,2.4-.2,1.7Z" transform="translate(-146.65 -45.25)"/><path id="TWLIE" class="cls-1" d="M471.2,47.6l.1.6H471l-.7.1-.5.1-.1-.9.3-.4.1-.1-.1-.3h-.1l-.1-.1.4-.5.2-.1.4-.2.2-.3.6,1.3-.6.7ZM458.8,70.1l-.1-.3-.2.5.2.7.3.3.3.1.4.1h.3l.5.1.3.2.1.5.2-.3.6-.1.4-.3.3-.2v-.5l.1-.5.6-.7h.1l.2-.1.6.1h.5l.3.1h.6l.7.1.8-.5v.3l-.3.3-.2.4h-.3l-.2.2-.2.4v.5l-.1.3v.1l-.3.4-.3.5-.1.1-.3.2-.2-.4h-.2l-.7.1-.2.3-.4.6-1,1h-.2l-.4-.3-.7-.1-.6.1-.2,1.2-.2.1-.7.1-.1-.3-.4-.5-.2-.2-.5.1-.6.1-.9-.3-.3-1,.3-.6.4-.3.4-.4.3-.7-.7-.5.4-.5h.6l.1-.5-.5-.8v-.8l.3-.4h.4l.3.4.3.1h.2l.5.3-.3.9-.1.2Zm12.6-10.9h-1l-1.1-.3-.4.7-.4.1-.2.2-.3.4V61l.2.7v.6l-.2.9.1.4.3.1.1.3-.5.2-.9-.2-.5.2v-1l.1-1.5.3-1.4.3-.5-.2-.4v-.6l.1-.2,1.1-.1.5-.6.5-.2.6-.3,1-.9.3-1,.5-.3.6-.1.4-.3.6.1.1.5.3.4h.4v1.8l.7-.7h.8l.1.1v1.2l-.7.2.1.5.3.2v1l-.5-.7-.2-.7-.5-.7H473l-.3.2-.4.3-.5.1Zm2.1-5.6-.4.2h-1l.1-.7.7-.2.1-.4.7-.1.7-.2-.9,1.4Z" transform="translate(-146.65 -45.25)"/><path id="TWPEN" class="cls-1" d="M409.7,611.6l.9,2.9-.4,2.2-1.4-1.4-1.9-1.3-2-.4-2.8,1.6-2.1.3-1,.5-.5,1.1-.8,2.9-.5.9-3.4,2-3.4.5-3.5-1.4-3.5-3.5.9-1.8,1.9,2.3,2.9.6,3.1-.8,2.6-2.1L393,616l-1.4-.8-1.1-1.2-1-1.6-.4.7v.2l-.2.2-.7.4L388,611l.2-2.9h1.3l1.5.4,5.3-3.4,3.4-1.1-.9,3.2-.4.9,2.9-.9,2.2.3,1.6-.2,1.2-1.9,3.4,6.2Zm-35.8-6.2,2.3-7.5,2.3-2.2,3,2.6-1.8,1.1-1.2,2.6-2,6.1-.1,1.6.5,1.4-.2,1-2.2.3-1.6.1-1.1.2-.9.4-.9.8h-2.7l.5-1.5.9-.9,1.3-.5,1.8-.1,1.6-.6.4-1.5.1-3.4Zm18.1-5-.6-2.5-1.5-2.1-3.1-3.1,4-3,2.4,1.3,2.3,2,1,2.1-1.8,1.7.7,2.5-1,1.7-1.6.5-.8-1.1Z" transform="translate(-146.65 -45.25)"/><path id="TWTAO" class="cls-1" d="M657.2,325.1l6.4-10.3,5-5.9,5.2-4.4,13.2-4.4,3.1-1.9,2.7-2.4,3.3-1.8,6.4-2.3,14.5-2.6,3,3.3,4.6,2.2,3.4,2.2,2.3,2.1,2.9.7,3.1,1.6,3.7,5.4.3,2.9-.7,3-2.4,2.5-9.4,2.8-2.7,2.9.2,4.5-.8,4.1.8,3.7,3.8,3.7.8,3.7-1,4.8,3.7,2.1,5.3-.3,3.7,1.4,6,8.9-1,3.8-2.3,2.7.6,3.7,1,4.1,6.4,6,1.8,4-2.2.6L748,385l2.3,9-1.6,2.7-2.5,1-2.3-.5-2.9,1.1-.3,1.1-3.5-1.5-5.2-3-2.9-2.1-4-.7-4.5-2.6-3.7-2.9-.4-3.1,3.3-4.7,1.4-5.6L720,368l-.2-3.6-2.5-1.9-3.1-1.6-1.9-3.3-2.4-2.5-2.8.2-2.8-.5-2.2-2.2-3-2.2-4.8-1.5-2.4-2.7.8-4.2-2.6-3-4.9-1.6-3-1.4-3.1-.9-3.6-1.4-2.9-6.3-3.3-2.2-9.8.7-2.3-.8Z" transform="translate(-146.65 -45.25)"/><path id="TWHSQ" class="cls-1" d="M657.2,325.1l2.3.8,9.8-.7,3.3,2.2,2.9,6.3,3.6,1.4,3.1.9,3,1.4,4.9,1.6,2.6,3-.8,4.2,2.4,2.7,4.8,1.5,3,2.2,2.2,2.2,2.8.5,2.8-.2,2.4,2.5,1.9,3.3,3.1,1.6,2.5,1.9.2,3.6,1.2,5.2-1.4,5.6-3.3,4.7.4,3.1,3.7,2.9,4.5,2.6,4,.7,2.9,2.1,5.2,3,3.5,1.5-1.7,4.7-1,3.4.4,3.2-2.7,4.2-10.1,10.2-3.1,7.5-2-.5-7.7.7-.5.4-.5-3.5-3.3-5.6-2.3-2.4-1-3.1-3.6-2.9-9.1,2.3-3.4-.4-4.9.4-5.5,1.5-3-.7.7-3.7.9-3.3-.7-2.9-.7-2.1.7-2.3.5-2.4.3-2.8-.6-3.8-2.7-2.4-8.8-4.2-4.3-3.2-2.8-3.2-3.2-8,1.8-2.2,1.6-4.1,2.5-3.1,4.2-1.7,3.7-.6,1.7-1,.7-2.7-1.3-2.6-2.8-2.8-3.9-2-10.9-3.5-6-2.6.1-.1,1.1-1.6.4-2.7.6-2.1L650,337l1.9-1.6,1.8-.6-.1-.9.5-2.1,1.6-4.4,1.5-2.3Z" transform="translate(-146.65 -45.25)"/><path id="TWHSZ" class="cls-1" d="M646.3,345.6l6,2.6,10.9,3.5,3.9,2,2.8,2.8,1.3,2.6-.7,2.7-1.7,1-3.7.6-4.2,1.7-2.5,3.1-1.6,4.1-1.8,2.2-.2.2-3.3.8-3.1-1.3-2-2.7-3-1.9-5-1.9.8-3,4-8.2,1.6-2.1.5-1.2V352l-.5-1.3-.8-1.6,1.1-2.2,1.2-1.3Z" transform="translate(-146.65 -45.25)"/><path id="TWMIA" class="cls-1" d="M655,374.5l3.2,8,2.8,3.2,4.3,3.2,8.8,4.2,2.7,2.4.6,3.8-.3,2.8-.5,2.4-.7,2.3.7,2.1.7,2.9-.9,3.3-.7,3.7,3,.7,5.5-1.5,4.9-.4,3.4.4,9.1-2.3,3.6,2.9,1,3.1,2.3,2.4,3.3,5.6.5,3.5-2.7,1.9-1.3,4-3.5,1.5-3.9-.1-3,2.2-3.3,3.1-4.2,2.4-8.4,6.6-4.9,2-6.4,3.5-3.9-1.6-3.6-4-4.4-1.7-7.1-.6-4,2.4-.6,5.3-3.7,2-8.8.5-8.4-4.8-4.7-.9-5.3-2.6-10.9-8-4.5-3.9-3.4-3.6-6.6-10.3,5.2-5.8,1.3-2.9.7-4.8,1.5-4,4.3-7.5L605,399l1.1-2,4.8-1.4,1.4-1.5.8-1.9,1-1.8,3-3.2,3.4-2.4,4-1.1,5.2,1-.7-3.9,1.9-2.7,2.7-2.7,1.3-4.2.6-1.3,2.6-1.3.3-.9,5,1.9,3,1.9,2,2.7,3.1,1.3,3.3-.8.2-.2Z" transform="translate(-146.65 -45.25)"/><path id="TWTXG" class="cls-1" d="M712.3,433.2l.5-.4,7.7-.7,2,.5,2.6.8-.5,4,1.1,2.6,3.5.8,3.2,1.9,2.7,1.8,2.8-.4,3.4-1.7h3.6l4.2,3.4-3.4,3.5-.3,3-1.7,4.5-5.4,3.4-2.2,3.6-.9,3.7-2.2,2.7-2.5,1.3-.9,1.4-2,1.5-9.6-.9-3.4-.8-3.4.2-8,3.2-4.5.7-4.4.2-6.4,3.3-3.2.6-3.6,2.1-5.7,5.5-3.6,1.4-4.8-.1-3.4,2.8-1.9,3.9-2.5.7-6.4-4.8-2.2,1.4-4.2,5.5-4.3.2-7.3-1.1-4.6,2.2-2.7,6.1-5.4,10.4-3.6,3.4-3,.5-13-1.8-3-.1-.1-1-3.9-2.6-3.1-.5-.9-2.5v-2.8l-1.4-2.9-2.3-3.6-3.2-2.6-8.5-2.5-3.3-3.9-.7-5.5-1.9-4.6-2.9-2.5-4.2-1.3.5-.6.5-2.4,2.4-1.9,1.6-4.7,1.9-8.8,6.7-11.7,2.1-7.1,2.4-4,9.6-10.6,6.6,10.3,3.4,3.6,4.5,3.9,10.9,8,5.3,2.6,4.7.9,8.4,4.8,8.8-.5,3.7-2,.6-5.3,4-2.4,7.1.6,4.4,1.7,3.6,4,3.9,1.6,6.4-3.5,4.9-2,8.4-6.6,4.2-2.4,3.3-3.1,3-2.2,3.9.1,3.5-1.5,1.3-4,2.7-1.9Z" transform="translate(-146.65 -45.25)"/><path id="TWCHA" class="cls-1" d="M563.1,480.3l4.2,1.3,2.9,2.5,1.9,4.6.7,5.5,3.3,3.9,8.5,2.5,3.2,2.6,2.3,3.6,1.4,2.9v2.8l.9,2.5,3.1.5,3.9,2.6.1,1v2.6l-3.1,1.1-.9,2.1.4,2.9-1.4,3.3-1.2,3.9-.1,4.1-.8,4.7-.7,9.7,1.5,4.5,2.6,2.4,2.8,1,4.1,2.1L602,566l-2.8,1.1-1.8,1.7-1.7,1.1-.7.5-8.7-1.7-4.2.1-8.7-4.4-14.2-1.6-8.4-3.2-4.8-1.3-5.4-.3-15.9,1.9-5.5-3.2.6-1,1.1-5.1.9-2.1,5.1-4.9,1.5-2.1,1.9-5.6,3-5.6,4.2-11.6,1.9-3.3,2.2-2.2,1.8-1.2,1.5-.8,1.2-1,.4-2.2.9-2,3.7-2.9.8-2.2.4-7.2.7-2,1.9-1.9,8.2-9.5Z" transform="translate(-146.65 -45.25)"/><path id="TWYUN" class="cls-1" d="M519.2,556.7l5.5,3.2,15.9-1.9,5.4.3,4.8,1.3,8.4,3.2,14.2,1.6,8.7,4.4,4.2-.1,8.7,1.7.7-.5,1.4,5.2-1.5,3.4-.7,5.2.7,5.5-1.3,3.7-.7,4.2,2.8,3.4,4.2,1.8,4.9-1.5,6-.6,1.9,2.5H613l-.3,3.6v2.5l-2.8.9-8.4,1.7-4.6.5-1.7-2.9-3.4-2.4-6,1.7-2.7.4-9.1-3.3-3.6-4.2-3.8-3.4-4.9.3-9.1,1.7-5.2,1.4L535.6,608l-2.7,2.7-3.2,1.7-5,4.1-3.9.6-1.4,2.2-1.3,3.5-2.8,2.3-4.4-.1-6-3.3-7.6.8-.1.1h-.7l3.4-3.7-.2-11.8.5-8.9,2-7,3.2-5.6.9-7.2,1.7-6.3.9-2.2,4.4-5.8.7-2,.6-1.1,4-3.1.6-1.2Z" transform="translate(-146.65 -45.25)"/><path id="TWCYQ" class="cls-1" d="M496.5,622.6h.7l.1-.1,7.6-.8,6,3.3,4.4.1,2.8-2.3,1.3-3.5,1.4-2.2,3.9-.6,5-4.1,3.2-1.7,2.7-2.7,11.8-6.8,5.2-1.4,9.1-1.7,4.9-.3,3.8,3.4,3.6,4.2,9.1,3.3,2.7-.4,6-1.7,3.4,2.4,1.7,2.9,4.6-.5,8.4-1.7,2.8-.9v-2.5l.3-3.6h.4l4.4.5,4.8,1.9,3,.8,3.7,2.1-.3,3.8-2.1,3.7.9,3.4,1.9,4.7.3,4.2.8,2.8,5.5,1,18.4.1.6.2L642,638.7l-6.1,4.8-2.5,4.9-3.1,3.7-5.5,3.1-5.8,4.4-3.2,3.8-8.9,5.3-4.2.4-4.9-.5-2.6,2.6-.1,3.5,1,3.3.7,4.8-6-.7-2.7-.8-3.6.5-3.8,1.7H578l-3.3-2.5-1.1-3.3,1.2-10.3-.7-5.4-7.1-7.3-1.3-3.6-1.5-3.1-2.9-1.7-5.1-1.7-6.1.3-11,2.1-5.6,2.5-4.4,3.3-3.4,3.4-4.8,3.7-4.1,2.6-1.8,3.6-4.5,2-5.3-1.3-6.3-1-3.8-1.4,2.8-.2,2.3-1,1,.3-.6-2.3-1.6,1.2-1.3-.4-1.8-.1v-2.3l1.8-4.1,2.6-.2h3.9l-2.6-7.5-3.1-5.8,1.4-2.6V638l-2.2-1.1.3-1.2,1.3-1.5.6-1.9,3-3.8-6.2.4-.2-6.3Zm62.7,15.5,4.9-2,3.2-.4,2.2-1.6-1.9-4.9-1.7-2.9-3-1.6-4-1.5-5.7.5-6.7,1.2-2.7,2.9.6,4.1,4.4,1.7,5.1,3.3,5.3,1.2Zm-82.1-1.3,10.1-10.2,7.6-9.7,1.8-.5-6.5,10.5-3.2,3.2-2.1,2.6-2.7,2.7-2.2,1.5-3.2,2.6-2.2,1.2,2.6-3.9Z" transform="translate(-146.65 -45.25)"/><path id="TWTNN" class="cls-1" d="M495.1,664.4l3.8,1.4,6.3,1,5.3,1.3,4.5-2,1.8-3.6,4.1-2.6,4.8-3.7,3.4-3.4,4.4-3.3,5.6-2.5,11-2.1,6.1-.3,5.1,1.7,2.9,1.7,1.5,3.1,1.3,3.6,7.1,7.3.7,5.4-1.2,10.3,1.1,3.3,3.3,2.5h2.7l3.8-1.7,3.6-.5,2.7.8,6,.7-1.6,4.8-7.5,10.9-7.2,12.2-4.7,6-5.4,5.3-4.6,3.9-4.5,4.6-3.8,5.1-2.1,3.7-1.7,4-4.6,3.2-4.6,1.9-2.6,1.8-3,1.1-6.1-.7-5.9.6-11.3-1.6-3.5-1.8-2.8-6.2-.1-.3-4.5,2.6-.7-4.5-1.3-2.6-2.8-2.8,3.5-2.5,1.9-4.3-.8-3.8-4.6-.7-.8,1.4-.8,2.4-1.3,1.9-2.4-.1-.9-1.6.3-5-.5-1.8-3-1.3-1.6,1.5-1.4,2.1-1.9.5-2.1-1.8-.6-2.5.5-2.4.9-1.7,2.1-1.1,2.7-.4,2.2-.7.7-2.2-1-1.1-6.7-1.7v-1.4h5.6l-.5-1.9-3.1-2.7-2-2.3.5-2.9,1.8-1,1.9-.7,1-1.8-.6-2.8-1-2.3.7-2.2,1-2.6,1.6-1.9-.3-1.7.3-1.6,2.4-6.5,1.2-1.2,1.8-.5-2.7-1.8,1.2-2.9Z" transform="translate(-146.65 -45.25)"/><path id="TWKHH" class="cls-1" d="M596.8,682.8l-.7-4.8-1-3.3.1-3.5,2.6-2.6,4.9.5,4.2-.4,8.9-5.3,3.2-3.8,5.8-4.4,5.5-3.1,3.1-3.7,2.5-4.9,6.1-4.8,13.3-6.8,3.2.7,4.2,1.6,3,4.2.5,1.5,1.4,4.2-2.2,3.5-4,1.8-1,2.3.7,2.9,4,2.6,4.6,3.7,2,5.5.2,1.8L660.7,671l-4.7,2.9-2.9,2.8-5.6,3.7-.6,4.1,1.6,4.3-1.9,3.5-5.3,2.9-.7,5,1.6,7.1-2.2,9.5v8.1l-3.1,4.2-6.2,5.3-1.7,7,1,5.9,2.2,3.3,4.4,4.6.9,3.5-2.8.4-3.8-.7-3.1.2-6.1,4.8-4.3-4L612,753l-5.2,1.3-4.8,4.3-9.4-4.8-6.8,3.2-4.6,5.1-5.7,2.1-12.9-.8-1.3,3.5-.9,5.2-1.9,5.7.4,5-.1,6.9-4,15.3-.2,5.1,2,5.4.3,5.9-5.8,14.8-1.9-.8h-1.1l-1.4.5-1.5.1-9.4-7.4L527,816.2l9.2,11.1-1-5.2-1.6-2.9-1.2-2.3-3.8-4.4-6.5-6-2.5-3.1-1.2-3.4,1.6-3.3.8-3-1.1-4.1-1.9-4.1-3.6-5.5-3.3-7.4-.7-3.3v-2.1l1.1-2.6.3-1.7-.4-.9-1-.7-.9-.9-.4-1.7-2.1-3.5-.5-1.4-1.6-9.9,4.5-2.6.1.3,2.8,6.2,3.5,1.8,11.3,1.6,5.9-.6,6.1.7,3-1.1,2.6-1.8,4.6-1.9,4.6-3.2,1.7-4,2.1-3.7,3.8-5.1,4.5-4.6,4.6-3.9,5.4-5.3,4.7-6,7.2-12.2,7.5-10.9,1.6-4.8Z" transform="translate(-146.65 -45.25)"/><path id="TWPIF" class="cls-1" d="M551.1,836.2l5.8-14.8-.3-5.9-2-5.4.2-5.1,4-15.3.1-6.9-.4-5,1.9-5.7.9-5.2,1.3-3.5,12.9.8,5.7-2.1,4.6-5.1,6.8-3.2,9.4,4.8,4.8-4.3L612,753l5.4,6.4,4.3,4,6.1-4.8,3.1-.2,3.8.7,2.5,4.7.5,3.5,3.9,1,4,2.6-2,9.9-.1,3.8-1.5,3.5-7,3-3.5,2-5.5,1.2-3.9,3.2-1.7,4.7-2.6,4.8-2.2,5.4L615,823l.9,4.7,1.4,4.4.8,5.1V841l1.9,3.7,3.3,4-1.8,2.7-3.8,2.3-1.5,2.8-.4,3.3,2,2.8,2.4,1.2,2.3,3.2-.1,4.1.4,4.4,2.3,4.3,3.3,3.5,7.4,3.4,3.2-.3.6,37.2-1.1,5.3-1.8,4.3-2.4,1.8-2.9,2.7.1,6,1,6.6-.2,4.2-3.3-4.9-4.9-3.7-5.7-2.5-5.7-1.4-.2,4.7-1.7,1.7-2.4-.6-2.7-2.2-.1-1.7.9-5-4-6.7-.3-1.8V929l.3-2.4v-7.7l.4-2.3,1.8-2.5.4-2.2-14.4-37.2-1.1-2.1-4-4.9-3.2-7.1-1.4-2.1-5.9-4.6-2.3-1.3-.8-.3-.8-.6-.7-2.6-.5-1-3.1-2.1-7.3-3.4-3.2-2.3-3.5-3-1.6-1-.2-.1Z" transform="translate(-146.65 -45.25)"/><path id="TWTTT" class="cls-1" d="M634.7,759.1l2.8-.4-.9-3.5-4.4-4.6-2.2-3.3-1-5.9,1.7-7,6.2-5.3,3.1-4.2v-8.1l2.2-9.5-1.6-7.1.7-5,5.3-2.9,1.9-3.5-1.6-4.3.6-4.1,5.6-3.7,2.9-2.8,4.7-2.9,11.2-2.8.8,5.3,3.7,5.9,5.6,2,4.4,2.1,3.6,3.4,4.5.7,4.1,1.1,6.6,11.5,8.5,7,5.9.8,4.7-2.7.6-4.4V696l2.2-4.3,3.5-9.6,2.6-5.5,1.8-6.1,1.9-4.8,2.5-3.7,2.6-5-.4-4.9-1.3-5,2.8-3.9,7.8-3.8,2.5.8-3.3,19-1.6,3.5-5.1,6.8-1.9,3.5-1.5,4.4-1,8.3.1,7.3-.8,6.9-3.5,7.2-1.5,1.6-3.4,2.5-1.5,1.6-.8,1.6-1.2,4.2-3.5,6.1-2.1,9.4-1.5,4.2L711.9,749l-.9,2-10,8.4-2.4,2.8-.4,1.9.5,4.5-.1,2-.9,2.3-1.6,2.6-3.4,4.3-3.4,3.2-11.6,7.8-7.8,8.5-1.9,1-1.5,2-3.8,9.7-1.8,3.6-5.8,7.3-2.4,4.3-1.3,8.8-3.5,12.1L641,860.2l-1,4.1-1.2,11.6.2,10.5-3.2.3-7.4-3.4-3.3-3.5-2.3-4.3-.4-4.4.1-4.1-2.3-3.2-2.4-1.2-2-2.8.4-3.3,1.5-2.8,3.8-2.3,1.8-2.7-3.3-4-1.9-3.7v-3.8l-.8-5.1-1.4-4.4L615,823l.6-10.6,2.2-5.4,2.6-4.8,1.7-4.7,3.9-3.2,5.5-1.2,3.5-2,7-3,1.5-3.5.1-3.8,2-9.9-4-2.6-3.9-1-.5-3.5-2.5-4.7ZM769.3,925.9l3.3,2.6,1.5,1.7-.2,2-3.9,1.3-5.3-2.2-4.9-3.4-2.8-2.7.8-1.9v-1.9l-.7-1.6-1.3-1.5h14.1v1.2l-.4.8-.6,1.7-.2,2.1.6,1.8ZM749.8,800l-1-3,.4-.4,7.3-.6.8.5.5,1.4-.6,2.8-.6,1.2-.3,1.2.3,1.1-.1.8-.5-.1h-1.3l-.6-.2-.3-.4-1.9-.7-2.1-3.6Z" transform="translate(-146.65 -45.25)"/><path id="TWHUA" class="cls-1" d="M727.6,474.4l2-1.5.9-1.4,2.5-1.3,2.2-2.7.9-3.7,2.2-3.6,5.4-3.4,1.7-4.5.3-3,3.4-3.5,1.8,1.5,4.7,2.2,10.8,2.8,6,2.3h4.7l3.5-3.3,1.7-4.3,2.7-.6,13.4,7.9,8,1.3h.8l.5.5.6,1.1.5,1.1.2.7-1,1.7-4.2,4.1-4.6,6.3-3.3,2.7-1,1.4.5,1.5-.6,1.1-4.9,3.6-1.8,1.8-2,4.3-2,8.8-5.4,7.8-1.1,3.2.2,3.4,1.3,3.8,1.1,1.6.9.7.6,1,.1,2.3-.8,2.7-2.7,4.1-.5,2.5-.3,4.6-2.3,11.7-4.6,12.4-5.8,28.8-3.4,7.1-8,46.2-2.5-.8-7.8,3.8-2.8,3.9,1.3,5,.4,4.9-2.6,5-2.5,3.7-1.9,4.8-1.8,6.1-2.6,5.5-3.5,9.6-2.2,4.3v4.9l-.6,4.4-4.7,2.7-5.9-.8-8.5-7-6.6-11.5-4.1-1.1-4.5-.7-3.6-3.4-4.4-2.1-5.6-2-3.7-5.9-.8-5.3-.2-1.8-2-5.5-4.6-3.7-4-2.6-.7-2.9,1-2.3,4-1.8,2.2-3.5-1.4-4.2,4.3-2.5,2.2-2.1-1.2-4.4,1.1-1.9,1.1-3,3.7-2.7,5.4-1.2,5.3-.2,3.8-3.4,1-6.2,2.8-3.7,5.5-2,3.3-2.3,1.1-3.6,2.3-9.1.9-6-.7-5.2-.8-3.9-2.3-2.9-1.5-2.9,4.1-6.8.1-2.7,1.8-5.1,2.8-6.1,2.2-6.3,1.1-7.2.5-5.4-1.3-3.2-1.5-2.4L715,520l3.7-7.7,5.8-7.6.1-2.7-1-3.3-3.8-2.4-2-2.2-.2-7.2,2.7-2.1,4.7-1.6,3.8-1.7-.2-2.6-1-4.5Z" transform="translate(-146.65 -45.25)"/><path id="TWILA" class="cls-1" d="M740.7,399.4l.3-1.1,2.9-1.1,2.3.5,2.5-1,1.6-2.7-2.3-9,3.9-2.8,2.2-.6,4.2-1.2,3.5-1.3,2.7-2.4,3.6-2.5,4.8-2.3,2.8-2-.3-1.4-.7-2.3-.1-3,1.4-3.6,3.4-2.9,2.7-1.6,9.4-3.8,9.7-5.9,4.5-1.3,3.6-2.6,2.3-3.7,2.3-2.9,2.7-1.4,2.5-.9,3.3-2.1,1.2-2.8-1.8-2.5,1-2.2,8.1-1.6,2.6-1.8,6-3.2,4.3-.9,2.4,1.4.6.8-8.6,4.3-4,3.4-13.5,16.4-2.1,3.5-1.7,4.8-1.1,5.6-.4,5.5.2,5.3,2.4,11.2-.2,2.9-1,2.8.2,5.8,2.4,4.5,4.7,2.9,5.5,1.1v1.2l-2.3-.2-2.2.2-1.9.6-1.3,1,1.9,3.6.9,4.7-.6,4.1-4.3,2.4-.3,1.8.6,2.1,1.2,2,.4,2-1.8,1.7-4.5,2.6-5,5.8-.2,2.3.3,5-.8,2-1,1.6-.6,2.3-.3,4.6-.4,1.2-.7.9-.4,1,.7,1.2.2.2h-.8l-8-1.3L785,446.4l-2.7.6-1.7,4.3-3.5,3.3h-4.7l-6-2.3-10.8-2.8-4.7-2.2-1.8-1.5-4.2-3.4h-3.6l-3.4,1.7-2.8.4-2.7-1.8-3.2-1.9-3.5-.8-1.1-2.6.5-4-2.6-.8,3.1-7.5,10.1-10.2,2.7-4.2-.4-3.2,1-3.4,1.7-4.7Z" transform="translate(-146.65 -45.25)"/><path id="TWNWT" class="cls-1" d="M754.1,381.6l-1.8-4-6.4-6-1-4.1-.6-3.7,2.3-2.7,1-3.8-6-8.9-3.7-1.4-5.3.3-3.7-2.1,1-4.8-.8-3.7-3.8-3.7-.8-3.7.8-4.1-.2-4.5,2.7-2.9,9.4-2.8,2.4-2.5.7-3-.3-2.9-3.7-5.4-3.1-1.6-2.9-.7-2.3-2.1-3.4-2.2-4.6-2.2-3-3.3,8.1-1.5,3.4-1.3,4.5-3.7,1.3-.7,1.6-.3h2.2l2.6.8,1.3,1.9.9,2,1.1,1.1,2.5-1-2.6-4.1-4.2-4.2-2.2-1.4.7-1.9,1.3-1.1,1.3-.7.6-.6,1.5-3.8,2.3-4.2,4.7-4.3,7-3.5,7.9-1.8,7.8.9,3.2,2.5,7.3,10.1,2.5,5.4.9-.3,1.9-.6,2.3-.2,1.5.4-.1.7-.7.9-.7,1.3v1.5l.8.9,1.6,1.2-3.1,2.1-5.2,2.3-2.3,1.5.4,2.1,2.1,2.7,1.2,2.5,2.1,2.5,2.6,2.5,2.2,1.6,7.6,3.1,3.7.5,2.9-1.1,1.8-1.3.3-1.8-2.7-2.8-.1-2.2.2-8.6,24.9,6.1,2.4,1.5-1.2,2.6-.3,2.1.5,3.8,1.7,6.2,1.9,3,1.6.7,5-.8,2.6.3,3,.8,2.7,1.3,1.5,1.9-6.3,3.1-.6-.8-2.4-1.4-4.3.9-6,3.2-2.6,1.8-8.1,1.6-1,2.2,1.8,2.5-1.2,2.8-3.3,2.1-2.5.9-2.7,1.4-2.3,2.9-2.3,3.7-3.6,2.6-4.5,1.3-9.7,5.9-9.4,3.8-2.7,1.6-3.4,2.9-1.4,3.6.1,3,.7,2.3.3,1.4-2.8,2-4.8,2.3-3.6,2.5-2.7,2.4-3.5,1.3-4.2,1.2Zm22.7-60.5,3-1.2,5.5-7,1.4-3-2.7-2.3-3.3-1.9-.1-3.6,1.1-4.8-1.1-3.2-2.8-2.5-1.8-7.2-1.2-2.6-1.1-2.4-.3-2.4.4-2.6-1.5-1.6-2.8-.9-2.9,1.4-2.1,1.8-7.8,4.7-2.6,2.9-1.5,3.3-1.3,1.7-1.2,2.1,2.7,3.1,4.2,4,.8,4.5-1.1,5.3,2.9,4.9,4.1,3.2,2.8,3.2,2.6,2.3,3.5.8Z" transform="translate(-146.65 -45.25)"/><path id="TWKEE" class="cls-1" d="M806.8,285.1l-.2,8.6.1,2.2,2.7,2.8-.3,1.8-1.8,1.3-2.9,1.1-3.7-.5-7.6-3.1-2.2-1.6-2.6-2.5-2.1-2.5-1.2-2.5-2.1-2.7-.4-2.1,2.3-1.5,5.2-2.3,3.1-2.1,1.1.7.5.8,1.2,1.1,2.8,1.1,8.1,1.9Z" transform="translate(-146.65 -45.25)"/><path id="TWNAN" class="cls-1" d="M599.5,519.1l3,.1,13,1.8,3-.5,3.6-3.4,5.4-10.4,2.7-6.1,4.6-2.2,7.3,1.1,4.3-.2,4.2-5.5,2.2-1.4,6.4,4.8,2.5-.7,1.9-3.9,3.4-2.8,4.8.1,3.6-1.4,5.7-5.5,3.6-2.1,3.2-.6,6.4-3.3,4.4-.2,4.5-.7,8-3.2,3.4-.2,3.4.8,9.6.9,1,4.5.2,2.6-3.8,1.7-4.7,1.6-2.7,2.1.2,7.2,2,2.2,3.8,2.4,1,3.3-.1,2.7-5.8,7.6L715,520l-1.7,5.5,1.5,2.4,1.3,3.2-.5,5.4-1.1,7.2-2.2,6.3-2.8,6.1-1.8,5.1-.1,2.7-4.1,6.8,1.5,2.9,2.3,2.9.8,3.9.7,5.2-.9,6-2.3,9.1-1.1,3.6-3.3,2.3-5.5,2-2.8,3.7-1,6.2-3.8,3.4-5.3.2-5.4,1.2-3.7,2.7-1.1,3-1.1,1.9,1.2,4.4-2.2,2.1-4.3,2.5-.5-1.5-3-4.2-4.2-1.6-3.2-.7-.6-.2-18.4-.1-5.5-1-.8-2.8-.3-4.2-1.9-4.7-.9-3.4,2.1-3.7.3-3.8-3.7-2.1-3-.8-4.8-1.9-4.4-.5-1.9-2.5-6,.6-4.9,1.5-4.2-1.8-2.8-3.4.7-4.2,1.3-3.7-.7-5.5.7-5.2,1.5-3.4-1.4-5.2,1.7-1.1,1.8-1.7L602,566l.7-2.5-4.1-2.1-2.8-1-2.6-2.4-1.5-4.5.7-9.7.8-4.7.1-4.1,1.2-3.9,1.4-3.3-.4-2.9.9-2.1,3.1-1.1v-2.6Z" transform="translate(-146.65 -45.25)"/><path id="TWTPE" class="cls-1" d="M776.8,321.1h-4.2l-3.5-.8-2.6-2.3-2.8-3.2-4.1-3.2-2.9-4.9,1.1-5.3-.8-4.5-4.2-4-2.7-3.1,1.2-2.1,1.3-1.7,1.5-3.3,2.6-2.9,7.8-4.7,2.1-1.8,2.9-1.4,2.8.9,1.5,1.6-.4,2.6.3,2.4,1.1,2.4,1.2,2.6,1.8,7.2,2.8,2.5,1.1,3.2-1.1,4.8.1,3.6,3.3,1.9,2.7,2.3-1.4,3-5.5,7-3,1.2Z" transform="translate(-146.65 -45.25)"/><path id="TWCYI" class="cls-1" d="M559.2,638.1l-5.3-1.2-5.1-3.3-4.4-1.7-.6-4.1,2.7-2.9,6.7-1.2,5.7-.5,4,1.5,3,1.6,1.7,2.9,1.9,4.9-2.2,1.6-3.2.4-4.9,2Z" transform="translate(-146.65 -45.25)"/><g id="points"><rect id="_0" data-name="0" class="cls-1" x="35.55" y="864.55"/><rect id="_1" data-name="1" class="cls-1" x="388.65" y="504.05"/><rect id="_2" data-name="2" class="cls-1" x="671.15" y="46.45"/></g><g id="label_points" data-name="label points"><rect id="TWKIN-2" data-name="TWKIN" class="cls-1" x="7.15" y="377.65"/><rect id="TWLIE-2" data-name="TWLIE" class="cls-1" x="325.55" y="11.55"/><rect id="TWPEN-2" data-name="TWPEN" class="cls-1" x="249.35" y="566.85"/><rect id="TWTAO-2" data-name="TWTAO" class="cls-1" x="556.95" y="275.15"/><rect id="TWHSQ-2" data-name="TWHSQ" class="cls-1" x="547.05" y="333.05"/><rect id="TWHSZ-2" data-name="TWHSZ" class="cls-1" x="505.75" y="314.85"/><rect id="TWMIA-2" data-name="TWMIA" class="cls-1" x="494.15" y="373.55"/><rect id="TWTXG-2" data-name="TWTXG" class="cls-1" x="458.25" y="437.45"/><rect id="TWCHA-2" data-name="TWCHA" class="cls-1" x="418.35" y="487.35"/><rect id="TWYUN-2" data-name="TWYUN" class="cls-1" x="395.95" y="535.85"/><rect id="TWCYQ-2" data-name="TWCYQ" class="cls-1" x="451.55" y="594.95"/><rect id="TWTNN-2" data-name="TWTNN" class="cls-1" x="389.55" y="654.45"/><rect id="TWKHH-2" data-name="TWKHH" class="cls-1" x="458.45" y="679.55"/><rect id="TWPIF-2" data-name="TWPIF" class="cls-1" x="439.05" y="776.65"/><rect id="TWTTT-2" data-name="TWTTT" class="cls-1" x="528.45" y="686.85"/><rect id="TWHUA-2" data-name="TWHUA" class="cls-1" x="592.35" y="519.75"/><rect id="TWILA-2" data-name="TWILA" class="cls-1" x="637.15" y="361.55"/><rect id="TWNWT-2" data-name="TWNWT" class="cls-1" x="616.65" y="297.55"/><rect id="TWKEE-2" data-name="TWKEE" class="cls-1" x="650.05" y="246.35"/><rect id="TWNAN-2" data-name="TWNAN" class="cls-1" x="511.95" y="506.75"/><rect id="TWTPE-2" data-name="TWTPE" class="cls-1" x="621.85" y="252.65"/><rect id="TWCYI-2" data-name="TWCYI" class="cls-1" x="410.05" y="585.25"/></g></svg>